<?xml version="1.0" encoding="utf-8"?>
<!-- Generator: Adobe Illustrator 22.0.1, SVG Export Plug-In . SVG Version: 6.00 Build 0)  -->
<svg version="1.1" id="Layer_1" xmlns="http://www.w3.org/2000/svg" xmlns:xlink="http://www.w3.org/1999/xlink" x="0px" y="0px"
	 viewBox="0 0 500 161.5" style="enable-background:new 0 0 500 161.5;" xml:space="preserve">
<path d="M69.6,56.3v5.3H38.5v-48h30.4v5.3H44.5v15.3h19.3V39H44.5v17.3H69.6z"/>
<path d="M122.3,13.6h5V45c0,6.3-1.5,10.8-4.6,13.5s-7.1,4.1-12.1,4.1c-5.6,0-9.7-1.4-12.3-4.2c-2.7-2.8-4-7.3-4-13.4V13.6h6V45
	c0,3.7,0.4,6.4,1.3,7.9s2.2,2.7,3.9,3.4c1.8,0.7,3.6,1.1,5.5,1.1c3.7,0,6.5-1,8.4-2.9s2.9-5.1,2.9-9.4
	C122.3,45.1,122.3,13.6,122.3,13.6z"/>
<path d="M190.9,61.6h-5.8l-24.8-41.8l0.1,3.2c0.1,1.2,0.1,2.2,0.1,3v35.6h-4.9v-48h7.5l23.2,39.1l-0.1-3.3c0-1.3-0.1-2.5-0.1-3.5
	V13.6h4.7v48H190.9z"/>
<path d="M266.2,61.6h-5.8V19.7l-15.6,41.9h-4.1L225,19.7v41.9h-5.1v-48h8.9L243.3,52l14.2-38.4h8.8L266.2,61.6L266.2,61.6z"/>
<path d="M301.2,61.6h-6v-48h6V61.6z"/>
<path d="M365.5,61.6h-5.8l-24.8-41.8L335,23c0.1,1.2,0.1,2.2,0.1,3v35.6h-4.9v-48h7.5l23.2,39.1l-0.1-3.3c0-1.3-0.1-2.5-0.1-3.5
	V13.6h4.7L365.5,61.6L365.5,61.6z"/>
<path d="M400.1,13.6v7.1l-4.7,8.4h-2.5l3.5-8.4h-3.5v-7.1H400.1z"/>
<path d="M419.2,48.9l5.4-1.2c2.2,6.5,6.9,9.8,14.2,9.8c3.8,0,6.7-0.8,8.6-2.4c1.9-1.6,2.9-3.8,2.9-6.5c0-2-0.7-3.7-2.2-4.9
	s-3.2-2.1-5.1-2.6l-9.6-2.4c-2.5-0.6-4.5-1.4-6.1-2.3c-1.6-0.9-2.9-2.3-4-4.2c-1.1-1.9-1.7-4-1.7-6.4c0-4,1.5-7.2,4.5-9.6
	s6.9-3.6,11.6-3.6c8.7,0,14.4,3.9,17.2,11.8l-5.4,1.6c-0.6-2.8-2.1-4.9-4.5-6.4s-4.8-2.2-7.5-2.2c-2.6,0-5,0.7-7,2.1s-3,3.5-3,6.1
	c0,3.6,2.6,6,7.8,7.2l9,2.1c8.2,2,12.3,6.4,12.3,13.3c0,4.1-1.5,7.6-4.6,10.4s-7.4,4.1-13,4.1C429,62.6,422.4,58,419.2,48.9z"/>
<path d="M44.5,148h-6v-48h17c5.3,0,9.2,1.4,11.8,4.3s3.8,6.2,3.8,9.9c0,4.1-1.4,7.5-4.1,10.2c-2.8,2.7-6.4,4-10.8,4H44.5V148z
	 M44.5,123.6h11c2.8,0,5.1-0.8,6.9-2.5c1.7-1.7,2.6-3.9,2.6-6.7c0-2.4-0.8-4.5-2.3-6.4s-3.8-2.8-6.7-2.8H44.5V123.6z"/>
<path d="M105.1,149c-6.2,0-11-2.4-14.4-7.2s-5.2-10.7-5.2-17.6c0-7.3,1.8-13.3,5.4-18s8.4-7.1,14.3-7.1s10.7,2.3,14.3,7
	c3.6,4.7,5.4,10.5,5.4,17.6c0,6.8-1.7,12.7-5.2,17.8C116.3,146.5,111.4,149,105.1,149z M105.3,144.1c4.2,0,7.5-1.9,9.8-5.7
	c2.4-3.8,3.6-8.7,3.6-14.8c0-6.2-1.2-11-3.7-14.5c-2.4-3.4-5.7-5.2-9.8-5.2c-4.1,0-7.4,1.9-9.8,5.6s-3.6,8.6-3.6,14.6
	c0,5.9,1.2,10.7,3.7,14.4C97.9,142.3,101.2,144.1,105.3,144.1z"/>
<path d="M178.3,148H172l-8.8-20.8h-13.7V148h-5.6v-48h18.9c5.1,0,8.9,1.4,11.4,4.2c2.5,2.8,3.7,5.9,3.7,9.2c0,2.6-0.7,5-2.1,7.3
	c-1.4,2.3-3.7,4-6.9,5L178.3,148z M149.4,122.4H162c3.3,0,5.8-0.9,7.4-2.6c1.6-1.7,2.4-3.9,2.4-6.4s-0.9-4.5-2.6-5.9
	s-3.9-2.1-6.5-2.1h-13.3L149.4,122.4L149.4,122.4z"/>
<path d="M211.7,148h-6v-42.7H192V100h33.5v5.3h-13.8V148z"/>
<path d="M308.5,149c-6.2,0-11-2.4-14.4-7.2s-5.2-10.7-5.2-17.6c0-7.3,1.8-13.3,5.4-18s8.4-7.1,14.3-7.1s10.7,2.3,14.3,7
	c3.6,4.7,5.4,10.5,5.4,17.6c0,6.8-1.7,12.7-5.2,17.8C319.7,146.5,314.8,149,308.5,149z M308.7,144.1c4.2,0,7.5-1.9,9.8-5.7
	c2.4-3.8,3.6-8.7,3.6-14.8c0-6.2-1.2-11-3.7-14.5c-2.4-3.4-5.7-5.2-9.8-5.2c-4.1,0-7.4,1.9-9.8,5.6s-3.6,8.6-3.6,14.6
	c0,5.9,1.2,10.7,3.7,14.4C301.3,142.3,304.6,144.1,308.7,144.1z"/>
<path d="M375.5,142.7v5.3h-28.3v-48h6.2v42.7H375.5z"/>
<path d="M398.3,148h-6v-48h6V148z"/>
<path d="M436.6,149c-6.2,0-11-2.4-14.4-7.2s-5.2-10.7-5.2-17.6c0-7.3,1.8-13.3,5.4-18s8.4-7.1,14.3-7.1s10.7,2.3,14.3,7
	c3.6,4.7,5.4,10.5,5.4,17.6c0,6.8-1.7,12.7-5.2,17.8C447.8,146.5,442.9,149,436.6,149z M436.8,144.1c4.2,0,7.5-1.9,9.8-5.7
	c2.4-3.8,3.6-8.7,3.6-14.8c0-6.2-1.2-11-3.7-14.5c-2.4-3.4-5.7-5.2-9.8-5.2c-4.1,0-7.4,1.9-9.8,5.6s-3.6,8.6-3.6,14.6
	c0,5.9,1.2,10.7,3.7,14.4C429.5,142.3,432.7,144.1,436.8,144.1z"/>
<g>
	<path d="M248.2,148.1h-6V100h29.5v5.3h-23.4v15.2h19.4v4.9h-19.4V148.1z"/>
</g>
</svg>
