<?xml version="1.0" encoding="utf-8"?>
<!-- Generator: Adobe Illustrator 22.0.1, SVG Export Plug-In . SVG Version: 6.00 Build 0)  -->
<svg version="1.1" id="Layer_1" xmlns="http://www.w3.org/2000/svg" xmlns:xlink="http://www.w3.org/1999/xlink" x="0px" y="0px"
	 viewBox="0 0 1920 398" style="enable-background:new 0 0 1920 398;" xml:space="preserve">
<path d="M218.1,50.6H149v58.7c6.6-5.6,13.2-11.5,19.8-17.7C183.8,76.6,201.3,64.1,218.1,50.6z"/>
<path d="M223.9,50.6h-5.8c-16.9,13.5-34.4,26-49.4,41c-6.6,6.2-13.2,12-19.8,17.7v12.5c24.7,2.8,50.1,6.8,74.9,8.9V50.6H223.9z"/>
<path d="M223.9,130.7c-24.8-2.1-50.2-6.1-74.9-8.9v73.7c25.3-18.8,50.4-37.7,74.9-57.2V130.7z"/>
<path d="M225,199.2c0-0.5,0.1-1,0.1-1.5l-0.1-0.1l0.1,0.1c1.4-18.7-0.5-38.1-0.9-57.3h-0.3v-2c-24.5,19.5-49.7,38.4-74.9,57.2v11.1
	c24.6,14.9,49,29.7,74.9,42.1v-49h2.3c-0.2-0.7-0.6-1.4-1.2-2C225,198.2,225,198.7,225,199.2z"/>
<path d="M258.8,140.3h-34.6c0.4,19.2,2.3,38.6,0.9,57.3c0.6,0.6,1,1.3,1.2,2h7.3C243,180.4,251.2,160.5,258.8,140.3z"/>
<path d="M223.9,248.7c-26-12.4-50.3-27.2-74.9-42.1v46.5c25-0.5,50-0.8,74.9-0.9V248.7z"/>
<path d="M223.9,252.2c-25,0.1-50,0.3-74.9,0.9v41.6h15c19.8-13.3,38.8-28,59.9-39.4V252.2z"/>
<path d="M223.9,255.3c-21.1,11.4-40.1,26.1-59.9,39.4h59.9V255.3z"/>
<path d="M268.4,199.2c0.6,0.2,1.1,0.4,1.7,0.5h9.3c0.1-19.6,2.1-39.6,1.4-59.4h-21.9c-7.6,20.1-15.8,40-25.3,59.4H270
	C269.5,199.5,268.9,199.3,268.4,199.2z"/>
<path d="M286,64.3c-1.5,4.3-3,8.6-4.6,12.9c5.1,3.5,10.3,6.8,15.8,9.6c20,10.7,37.8,24.6,58.8,32.7V50.6h-74.9V77
	c0.1,0.1,0.2,0.1,0.3,0.2C283,72.9,284.5,68.6,286,64.3z"/>
<path d="M356.1,119.5c-21.1-8.1-38.9-22.1-58.8-32.7c-5.5-2.8-10.7-6.1-15.8-9.6c-0.1,0.3-0.2,0.6-0.3,0.9v61.7
	c25.3,0,49.8,0,74.9,0L356.1,119.5L356.1,119.5z"/>
<path d="M356.1,241.7c-24.7-13.7-48.3-28.2-74.9-38.2v39c25,0,50,0,74.9,0V241.7z"/>
<path d="M314.9,242.5c2.1,2.8,4.2,5.5,6.3,8.3c0-0.1,0.1-0.2,0.1-0.3c0,0.1-0.1,0.2-0.1,0.3c11.1,14.7,22,29.4,33.6,43.8h1.2v-52.1
	C342.4,242.5,328.7,242.5,314.9,242.5z"/>
<path d="M314.9,242.5c-11.3,0-22.5,0-33.8,0v52.1h21.6c5.1-15.1,12.2-29,18.4-43.8C319.2,248.1,317.1,245.3,314.9,242.5z"/>
<path d="M321.2,250.8c-6.2,14.8-13.3,28.7-18.4,43.8h52C343.3,280.3,332.4,265.6,321.2,250.8z"/>
<path d="M356.1,139.8c-25.2,0-49.6,0-74.9,0v0.6h-0.4c0.6,19.8-1.4,39.8-1.4,59.4h1.8v2.9c5.8-9.9,11.5-20.1,17.7-30.7
	c4.8-11.2,9.6-22.5,20.9-30.5c-11.2,8-16.1,19.3-20.9,30.5c-6.2,10.6-11.9,20.8-17.7,30.7v0.9c26.6,10,50.2,24.5,74.9,38.2V139.8z"
	/>
<path d="M281.2,77v1.1c0.1-0.3,0.2-0.6,0.3-0.9C281.4,77.1,281.3,77,281.2,77z"/>
<path d="M398.5,99.8c0.2-0.1,0.5-0.1,0.7-0.2c-0.2-0.1-0.5-0.3-0.7-0.4V99.8z"/>
<path d="M416.3,50.6h-17.8v48.6c0.2,0.1,0.5,0.3,0.7,0.4c18.5-5.5,36.8-11.2,56.2-15.9C442.3,72.8,429.1,62,416.3,50.6z"/>
<path d="M473.4,135.3V99c-5.9-5.1-12-10.2-18-15.2c-19.4,4.7-37.7,10.3-56.2,15.9c12.3,7.3,23.6,15.3,36.2,20.9
	C447.9,125.5,460.8,130,473.4,135.3z"/>
<path d="M398.5,147.6v39.8c9.1-13.2,19.1-25.5,27.3-39.6c-8.2,14.1-18.1,26.4-27.3,39.6v13.4c9.2-3,18.5-5.5,27.9-7.5
	c0.3-0.7,0.7-1.4,1-2.1c-0.3,0.7-0.7,1.4-1,2.1c15.5-3.4,31.3-5.6,47.1-7.9v-4c-14.9-10.8-30.2-21.4-46.1-32
	c15.8,10.6,31.2,21.1,46.1,32v-33.7C448.5,147.6,423.6,147.2,398.5,147.6z"/>
<path d="M404.9,236.1c0.3,0,0.5,0,0.8,0c6.9-14.4,13.9-28.6,20.7-42.9c-9.4,2-18.7,4.5-27.9,7.5v50.6c2.3-5.1,4.7-10.2,7.1-15.3
	C405.4,236.1,405.1,236.1,404.9,236.1z"/>
<path d="M473.4,215.6c-14.7-7.2-30.6-14.1-44.5-22.9C442.8,201.6,458.7,208.4,473.4,215.6v-30.3c-15.8,2.2-31.6,4.5-47.1,7.9
	c-6.8,14.3-13.9,28.5-20.7,42.9c22.1,0,45.3,0,67.8,0L473.4,215.6L473.4,215.6z"/>
<path d="M405.6,236.1c-2.4,5.1-4.8,10.2-7.1,15.3v43.3h33.7c2.2-19.5,3.8-39,6.4-58.6C427.5,236.1,416.4,236.1,405.6,236.1z"/>
<path d="M438.6,237.7c11.5,9.4,22.9,19.4,34.8,28.8v-30.4c-11.5,0-23.2,0-34.8,0c-2.6,19.5-4.2,39-6.4,58.6h41.2v-28.1
	C461.5,257.1,450.1,247.1,438.6,237.7z"/>
<path d="M435.4,120.5c-12.6-5.6-23.9-13.6-36.2-20.9c-0.2,0.1-0.5,0.1-0.7,0.2v47.8c25.1-0.4,50,0,74.9,0v-12.3
	C460.8,130,447.9,125.5,435.4,120.5z"/>
<path d="M456.3,83.5c-0.3,0.1-0.6,0.1-0.8,0.2c6,5,12.1,10.1,18,15.2V50.5h-57.1c12.8,11.4,26,22.3,39.1,33.2
	C455.7,83.7,456,83.6,456.3,83.5z"/>
<path d="M559.1,249L559.1,249c4.7-1.5,9.5-3,14.3-4.3c-5.6-4.9-11.3-9.9-16.8-14.9H511v37.4c8.6-3.5,17.1-6.9,25.6-10.2l0,0l0,0
	C544,254.2,551.5,251.4,559.1,249L559.1,249z"/>
<path d="M536.6,257c-8.5,3.2-16.9,6.7-25.6,10.2v27.5h25.6C536.6,282.5,536.6,269.1,536.6,257z"/>
<path d="M578.9,277.9c-7-9.4-13.9-18.9-19.9-28.9c-7.6,2.5-15,5.2-22.5,8.1c0,12,0,25.4,0,37.6h3.2l-0.1,0.1
	c13.1-2.9,26.2-4.6,39.2-6.6L578.9,277.9L578.9,277.9z"/>
<path d="M562.1,318.9c-8.4-6.1-16.1-13.1-24.7-18.9l-11.3,25.3c0.4,0,0.9,0,1.3,0c-0.2-0.3-0.3-0.6-0.5-0.9c0.2,0.3,0.3,0.6,0.5,0.9
	c9.9,0.3,19.9,1.1,29.7,2.1L562.1,318.9z"/>
<path d="M526.1,325.3l-14.4,32.2H539c-3.6-10.9-5.9-22.1-11.6-32.1C527,325.3,526.5,325.3,526.1,325.3z"/>
<path d="M557.1,327.4c-9.8-1-19.8-1.8-29.7-2.1c5.8,10,8,21.3,11.6,32.1h0.7L557.1,327.4z"/>
<path d="M578.9,289.7v-1.4c-13.1,1.9-26.2,3.7-39.2,6.6l-2.3,5.2c8.6,5.8,16.3,12.7,24.7,18.9L578.9,289.7z"/>
<path d="M578.9,249.6c-1.8-1.6-3.7-3.3-5.6-4.9c-4.8,1.3-9.6,2.8-14.3,4.3c6,10,12.9,19.5,19.9,28.9L578.9,249.6L578.9,249.6z"/>
<path d="M575.1,244.1c-0.6,0.2-1.2,0.3-1.8,0.5c1.9,1.6,3.7,3.3,5.6,4.9v-19.8h-22.4c5.5,5,11.2,9.9,16.8,14.9
	C574,244.5,574.5,244.3,575.1,244.1z"/>
<path d="M687,102.1c13.4-17.1,26.6-34.2,39.4-51.6H687V102.1z"/>
<path d="M734.1,99.6c0.5-0.2,1-0.4,1.5-0.6c-0.6-16.1-3.1-32.3-5.6-48.4h-3.7c-12.7,17.3-26,34.4-39.4,51.6v6.9h48.9
	c0-3.4,0-6.7-0.2-10.1C735.1,99.2,734.6,99.4,734.1,99.6z"/>
<path d="M770.2,50.6h-40.1c2.5,16.1,5,32.3,5.6,48.4c20.1-8.1,35.9-22,56.2-28.3C784.6,64.1,777.3,57.4,770.2,50.6z"/>
<path d="M808.6,109h24.7C820,95.7,805.9,83.3,792,70.7C771.7,77,755.9,90.8,735.8,99c0.1,3.4,0.2,6.7,0.2,10.1h1.7v1.8
	c6.5,0,12.9,0,19.4,0c-0.7-0.5-1.3-1.1-2-1.6c0.6,0.5,1.3,1.1,2,1.6c17.2,0,34.4,0,51.6,0V109H808.6z"/>
<path d="M808.6,110.8c-17.2,0-34.4,0-51.6,0c15.3,12.5,33.9,21.7,51.6,31.7V110.8z"/>
<path d="M757,110.8c-6.5,0-12.9,0-19.4,0v48c23.7-5.9,47.3-11.2,71-15.8v-0.5C790.8,132.5,772.2,123.4,757,110.8z"/>
<path d="M737.6,183.1v3.7c11.7,0.3,23.4,0.1,35.1-2.1c0-6.2,0-12.8,0-19.3C761.6,172.1,749.7,178,737.6,183.1z"/>
<path d="M747,215.2c0.1,0.1,0.1,0.1,0.2,0.2c9.1-9.7,17.7-19.9,25.5-30.7c-11.7,2.2-23.4,2.4-35.1,2.1v38.5c3.3-3.3,6.4-6.6,9.6-10
	C747.1,215.3,747,215.3,747,215.2z"/>
<path d="M775.7,237.4c-9.6-7.1-19.1-14.4-28.6-22c-3.1,3.4-6.3,6.7-9.6,10v63.9c12.5-9.4,24.8-19.4,36.4-30.4
	C774.3,251.8,774.9,244.7,775.7,237.4z"/>
<path d="M737.6,289.3v5.4H774c-0.7-12-0.7-23.8-0.1-35.8C762.3,269.9,750.1,279.8,737.6,289.3z"/>
<path d="M775.7,237.4c-0.8,7.3-1.4,14.4-1.8,21.5c0.1-0.1,0.2-0.2,0.3-0.3c-0.1,0.1-0.2,0.2-0.3,0.3c-0.6,12-0.6,23.8,0.1,35.8h34.6
	v-34.3C797.4,253,786.5,245.4,775.7,237.4z"/>
<path d="M772.7,186.3c0-0.5,0-1.1,0-1.6c-7.8,10.8-16.4,20.9-25.5,30.7c9.5,7.6,19,14.9,28.6,22c0-0.4,0.1-0.9,0.1-1.3
	c-0.1,0.4-0.1,0.9-0.1,1.3c10.8,8,21.7,15.6,32.8,23V198C797,193.7,784.8,189.6,772.7,186.3z"/>
<path d="M772.7,150.6v0.4c0,4.6,0,9.5,0,14.5c0,6.5,0,13.1,0,19.3c0,0.5,0,1.1,0,1.6c12.2,3.3,24.3,7.4,35.9,11.7v-55
	C796.6,145.4,784.6,147.9,772.7,150.6z"/>
<path d="M772.7,150.6c-11.7,2.6-23.4,5.4-35.1,8.3v24.2c12.1-5.1,24-11,35.1-17.7c0-4.9,0-9.8,0-14.5V150.6z"/>
<path d="M770.2,50.6c7.1,6.9,14.4,13.5,21.7,20.1l0,0l0,0c14,12.6,28,25,41.3,38.3h25.9V50.5h-88.9V50.6z"/>
<path d="M891.5,98c0.2,0,0.4,0,0.6,0c9.1-15.6,18.1-31.3,26.4-47.4h-38.1v67.5c3.9-6.7,7.8-13.4,11.7-20.1
	C891.9,98,891.7,98,891.5,98z"/>
<path d="M955.4,50.6h-36.9c-8.2,16.1-17.3,31.8-26.4,47.4c21.1,0,42.2,0,63.3,0L955.4,50.6L955.4,50.6z"/>
<path d="M955.4,98c-21.1,0-42.2,0-63.3,0c-3.9,6.7-7.8,13.4-11.7,20.1v1.6c24.6,6.1,49.4,11.9,74.9,15.3L955.4,98L955.4,98z"/>
<path d="M955.4,135c-25.6-3.4-50.3-9.2-74.9-15.3V197c27.5-17.5,53.3-35.9,74.7-59.8c0.1-0.3,0.2-0.7,0.3-1L955.4,135L955.4,135z"/>
<path d="M955.4,136.2c-0.1,0.3-0.2,0.7-0.3,1c0.1-0.1,0.2-0.2,0.3-0.3V136.2z"/>
<path d="M914,239.3c0.2,0.1,0.4,0.2,0.6,0.4c-0.3-12.7-0.8-25.4-2.1-38.2c-10.6-1.2-21.2-2-32-2.3v95.4h34.4
	c-0.3-18.4,0-36.6-0.3-55C914.4,239.6,914.2,239.5,914,239.3z"/>
<path d="M914.6,239.7c13.6,8.7,27.2,16.9,40.8,25.2V208c-14.2-2.6-28.5-4.9-43-6.5C913.8,214.3,914.3,227,914.6,239.7z"/>
<path d="M914.6,239.7c0.4,18.4,0.1,36.6,0.3,55h40.5v-29.8C941.8,256.6,928.2,248.4,914.6,239.7z"/>
<path d="M955.2,137.2c-21.4,23.9-47.2,42.3-74.7,59.8v2.2c10.8,0.2,21.4,1.1,32,2.3c0-0.2,0-0.5-0.1-0.7c0,0.2,0,0.5,0.1,0.7
	c14.5,1.6,28.7,4,43,6.5v-8.3h1C958.9,179.2,950.4,157.8,955.2,137.2z"/>
<path d="M1012,199.7c-12.3-21.5-27.2-40.4-42.7-59.4h-14v-3.4c-0.1,0.1-0.2,0.2-0.3,0.3c-4.8,20.6,3.7,42,1.3,62.5H1012z"/>
<path d="M1012.6,199.7v1c0.3,0.5,0.6,1.1,0.9,1.6c0-20.7-0.2-41.3-1.2-62h-43c15.5,19,30.4,37.9,42.7,59.4H1012.6z"/>
<path d="M1045.7,50.6h-33.1v55.5c11.1-4.2,21.6-8.8,33.1-11.3C1045.7,79.6,1045.7,65.4,1045.7,50.6z"/>
<path d="M1087.6,50.6h-41.9c0,9.5,0,18.7,0,28.2c14.1-2.2,28.3-2.1,41.9-3.9V50.6z"/>
<path d="M1087.6,74.8c-13.6,1.7-27.8,1.7-41.9,3.9c0,5.3,0,10.6,0,16.1c13.4,13.4,27.5,26,41.9,38.3V74.8z"/>
<path d="M1053.7,141.4C1053.7,141.4,1053.8,141.4,1053.7,141.4C1053.8,141.4,1053.7,141.4,1053.7,141.4L1053.7,141.4z"/>
<path d="M1045.7,94.8c-11.5,2.6-22,7.1-33.1,11.3V140c13.7,0.7,27.4,1.2,41.1,1.5v-0.1c0,0,0,0.1,0.1,0.1
	c11.3,0.2,22.5,0.2,33.8-0.1v-8.3C1073.2,120.7,1059.1,108.1,1045.7,94.8z"/>
<path d="M1087.6,141.4c-11.2,0.3-22.5,0.3-33.8,0.1c10.6,13.5,22.3,26.4,33.5,39.7c0.1,0,0.2-0.1,0.3-0.1V141.4z"/>
<path d="M1087.6,181c-0.1,0-0.2,0.1-0.3,0.1c0.1,0.1,0.2,0.2,0.3,0.3V181z"/>
<path d="M1053.8,141.4C1053.8,141.4,1053.7,141.4,1053.8,141.4c-10.9,28.5-24.2,56.4-40.2,82.6c22.2-17.9,47.7-30.8,73.7-42.9
	C1076.1,167.8,1064.4,154.9,1053.8,141.4z"/>
<path d="M1035.3,208.6c-7.5,4.8-14.8,9.9-21.7,15.5c-0.3,0.5-0.6,1.1-1,1.6v26.9c11.7,0.8,23.2,1.2,34.7,1.4c0-0.1,0-0.1-0.1-0.2
	c0,0.1,0,0.1,0.1,0.2c13.4,0.3,26.8,0.2,40.2,0.1v-6.3c-17.6-12.4-35.2-24.7-51.5-39C1035.8,208.8,1035.6,208.7,1035.3,208.6z"/>
<path d="M1087.3,181.2c-17.8,8.3-35.5,17-51.9,27.4c0.2,0.1,0.5,0.2,0.7,0.2c16.3,14.3,33.9,26.6,51.5,39v-66.3
	C1087.5,181.4,1087.4,181.3,1087.3,181.2z"/>
<path d="M1012.6,252.6v42.1h47.1c-3.6-13.6-7.3-27.1-12.4-40.7C1035.9,253.8,1024.3,253.3,1012.6,252.6z"/>
<path d="M1087.6,254.1c-13.4,0.1-26.8,0.1-40.2-0.1c5.1,13.6,8.8,27.1,12.4,40.7h27.8L1087.6,254.1L1087.6,254.1z"/>
<path d="M1012.6,140v0.4h-0.2c0.9,20.7,1.1,41.3,1.2,62l0,0l0,0c0,5.4,0,10.7,0,16.1c0-5.4,0-10.7,0-16.1c-0.3-0.5-0.6-1.1-0.9-1.6
	v24.1c0.3-0.3,0.6-0.5,1-0.8c16-26.2,29.3-54.1,40.1-82.7C1040,141.2,1026.3,140.7,1012.6,140z"/>
<path d="M1013.6,224.1c-0.3,0.3-0.6,0.5-1,0.8v0.8C1013,225.2,1013.3,224.6,1013.6,224.1z"/>
<path d="M1256.7,50.6c0.1,0.2,0.3,0.5,0.4,0.7c0-0.2,0-0.5,0-0.7H1256.7z"/>
<path d="M1257.2,50.6c0,0.2,0,0.5,0,0.7c11,18.4,21.5,37,32.2,55.6h24.3V50.6L1257.2,50.6L1257.2,50.6z"/>
<path d="M1257.1,51.3c-1.2,18.9-4.3,37.3-6.9,55.6h39.1C1278.6,88.3,1268.1,69.7,1257.1,51.3z"/>
<path d="M1256.7,50.6h-48.1c14.1,16,27.7,32.4,42.7,47.4c-15-15-28.6-31.5-42.7-47.4h-22.2c7.3,18.5,13.9,37.1,19.8,56.3h44
	c2.6-18.3,5.7-36.7,6.9-55.6C1257,51.1,1256.9,50.8,1256.7,50.6z"/>
<path d="M1203.5,106.9h2.7c-5.9-19.2-12.5-37.8-19.8-56.3H1130v47.2c24.3,3.1,49.3,7.6,73.5,10.5V106.9z"/>
<path d="M1203.5,108.3c-24.2-2.9-49.2-7.4-73.5-10.5v63.6c24.3-7.3,48.5-15.1,73.5-21.7V108.3z"/>
<path d="M1292.5,142.3H1251c12.8,15.4,27.9,29,41.6,44.3L1292.5,142.3L1292.5,142.3z"/>
<path d="M1251,142.3h-18.8c-4.7,17.8-8.7,36-9.6,54.2h70v-9.9C1278.9,171.3,1263.8,157.7,1251,142.3z"/>
<path d="M1203.5,142.3v-2.6c-25,6.5-49.2,14.4-73.5,21.7v0.5c22.2,18.8,46.8,33.3,71.5,47.8c0.5-0.3,1.1-0.6,1.6-0.8
	c-0.5,0.3-1.1,0.6-1.6,0.8c0.7,0.4,1.3,0.8,2,1.2v-10.7c-7.8-17.5-15.7-34.9-24.5-52.4c8.7,17.5,16.7,34.9,24.5,52.4v-3.7h19.1
	c0.9-18.2,4.9-36.4,9.6-54.2H1203.5z"/>
<path d="M1201.5,209.7c-24.7-14.5-49.3-29-71.5-47.8v74.2c9.6,0,19.2,0,28.8,0C1172.7,226.6,1186.6,217.3,1201.5,209.7z"/>
<path d="M1130,236.1v19.5c9.8-6.3,19.3-12.9,28.8-19.5C1149.2,236.1,1139.6,236.1,1130,236.1z"/>
<path d="M1203.5,210.8c-0.7-0.4-1.3-0.8-2-1.2c-14.9,7.6-28.8,16.9-42.7,26.5c14.9,0,29.8,0,44.7,0V210.8z"/>
<path d="M1300.7,236.4h-55.2c13.7,15,27.9,29.8,41.6,44.8C1291.8,266.3,1296.5,251.5,1300.7,236.4z"/>
<path d="M1313.6,294.7v-58.3h-12.9c-4.2,15.1-8.9,30-13.5,44.8c4.1,4.5,8.1,8.9,12.1,13.5H1313.6z"/>
<path d="M1130,259.6v35.1h83c0-0.2,0.1-0.5,0.1-0.7C1184.4,285.5,1156.5,274.5,1130,259.6z"/>
<path d="M1213,294c0,0.2-0.1,0.5-0.1,0.7h2.5C1214.6,294.5,1213.8,294.2,1213,294z"/>
<path d="M1203.5,236.4v-0.3c-14.9,0-29.8,0-44.7,0c-9.5,6.5-19,13.2-28.8,19.5v4c26.5,15,54.4,25.9,83.1,34.4
	c2.8-19.2,6.5-38.2,8.4-57.6L1203.5,236.4L1203.5,236.4z"/>
<path d="M1245.5,236.4h-24.1c-1.9,19.4-5.6,38.4-8.4,57.6c0.8,0.2,1.6,0.5,2.4,0.7h67.6c1.4-4.5,2.8-9,4.2-13.5
	C1273.4,266.2,1259.3,251.4,1245.5,236.4z"/>
<path d="M1287.2,281.2c-1.4,4.5-2.8,9-4.2,13.5h16.3C1295.3,290.2,1291.2,285.7,1287.2,281.2z"/>
<path d="M1529.7,124.7c0.3-1.8,0.7-3.6,1-5.3c-1.9,0-3.8,0-5.7,0.1C1526.5,121.1,1528.1,122.9,1529.7,124.7z"/>
<path d="M1536.4,70.3c-15.6-13.2-37.4-19.8-65.5-19.8h-4.1c18.2,24.1,38.3,46.4,58.2,68.8c1.9,0,3.8,0,5.7-0.1
	c2.9-15.6,5.7-31.1,8.4-46.7C1538.2,71.9,1537.3,71.1,1536.4,70.3z"/>
<path d="M1559.7,119c-9.7,0.1-19.3,0.3-29,0.4c-0.3,1.8-0.7,3.6-1,5.3c8.3,9.4,16.5,18.8,24.5,28.4c3.7-9.2,5.5-19.4,5.5-30.6
	C1559.7,121.3,1559.7,120.1,1559.7,119z"/>
<path d="M1539,72.7c-2.7,15.5-5.5,31.1-8.4,46.7c9.7-0.1,19.3-0.2,29-0.4C1558.9,100.2,1552,84.8,1539,72.7z"/>
<path d="M1518.6,187.2c0.3-0.1,0.5-0.3,0.8-0.4c-0.2-0.1-0.5-0.2-0.7-0.3C1518.7,186.8,1518.6,187,1518.6,187.2z"/>
<path d="M1529.7,124.7c-3.8,20.6-7.6,41.2-10.9,61.9c0.2,0.1,0.5,0.2,0.7,0.3c15.7-7.9,26.3-16.9,31.7-27.1c1.1-2.2,2.1-4.4,3.1-6.7
	C1546.2,143.5,1538,134,1529.7,124.7z"/>
<path d="M1343.3,210.8v28.4c3.6-3.7,7.1-7.5,10.7-11.3c-0.5,0-1.1,0.1-1.6,0.1c0.5,0,1.1-0.1,1.6-0.1c0.3-0.3,0.6-0.6,0.8-0.9
	C1351,221.7,1347.1,216.3,1343.3,210.8z"/>
<path d="M1343.3,239.2v55.5h64.1c-18.2-21.6-35.5-43.9-52-66.8c-0.5,0-0.9,0.1-1.4,0.1C1350.5,231.7,1346.9,235.5,1343.3,239.2z"/>
<path d="M1354,228c0.5,0,0.9-0.1,1.4-0.1c-0.2-0.3-0.4-0.5-0.6-0.8C1354.6,227.4,1354.3,227.7,1354,228z"/>
<path d="M1353,163.8c12-16.3,23.9-32.8,34.9-49.8c-14.9-1.7-29.7-3.9-44.5-6.7v69.6c3-4.1,6-8.2,9-12.3c0-0.3,0.1-0.6,0.1-0.8
	C1352.6,163.8,1352.8,163.8,1353,163.8z"/>
<path d="M1352.5,163.8c0,0.3-0.1,0.6-0.1,0.8c0.2-0.3,0.4-0.6,0.6-0.8C1352.8,163.8,1352.6,163.8,1352.5,163.8z"/>
<path d="M1383.6,50.6h-40.3v56.8c14.8,2.8,29.6,5,44.5,6.7c3.1-4.8,6.1-9.6,9.1-14.4C1392.4,83.3,1388,66.9,1383.6,50.6z"/>
<path d="M1422,50.6h-38.4c4.3,16.4,8.7,32.7,13.3,49C1406.4,83.9,1414.9,67.6,1422,50.6z"/>
<path d="M1418.3,224.5v-23.2h9.7c-4.1-12.2-8.1-24.5-11.9-36.8c-20.1,19.6-39.4,39.8-58.7,60c0,0.7,0,1.3-0.1,2
	c0.1-0.7,0.1-1.3,0.1-2c-0.8,0.9-1.7,1.7-2.5,2.6c0.2,0.3,0.4,0.5,0.6,0.8C1376.8,226.4,1397.1,224.1,1418.3,224.5z"/>
<path d="M1355.4,227.9c16.5,22.9,33.8,45.1,52,66.8h10.9v-70.2C1397.1,224.1,1376.8,226.4,1355.4,227.9z"/>
<path d="M1409.3,142.5c-0.7-0.4-1.5-0.7-2.2-1.1C1407.8,141.7,1408.6,142.1,1409.3,142.5c-2.7-9-5.3-18-7.9-27.1
	c-4.5-0.4-9-0.9-13.5-1.4c-11,17-22.9,33.5-34.9,49.8c20.4,0,42.4,0,62.8,0C1413.6,156.7,1411.4,149.6,1409.3,142.5z"/>
<path d="M1357.4,224.5c19.2-20.2,38.5-40.4,58.7-60c-0.1-0.2-0.1-0.4-0.2-0.7c-20.5,0-42.4,0-62.8,0c-0.2,0.3-0.4,0.6-0.6,0.8
	C1349.6,184.6,1358.2,204.5,1357.4,224.5z"/>
<path d="M1357.4,224.5c0.9-19.9-7.8-39.9-5-59.8c-3,4.1-6,8.2-9,12.3v33.9c3.8,5.5,7.7,10.9,11.5,16.3
	C1355.7,226.2,1356.5,225.4,1357.4,224.5z"/>
<path d="M1387.9,114c4.5,0.5,9,1,13.5,1.4c-1.5-5.3-3-10.6-4.5-15.9C1394,104.4,1390.9,109.2,1387.9,114z"/>
<path d="M1418.3,116.8c-5.6-0.4-11.3-0.9-16.9-1.4c2.6,9,5.2,18.1,7.9,27.1c3,1.5,6,3,8.9,4.4L1418.3,116.8L1418.3,116.8z"/>
<path d="M1415.8,163.8c0.1,0.2,0.1,0.4,0.2,0.7c0.2-0.2,0.5-0.4,0.7-0.7C1416.4,163.8,1416.1,163.8,1415.8,163.8z"/>
<path d="M1422.9,149.1h-4.7v-2.2c-3-1.4-6-2.9-8.9-4.4c2.1,7.1,4.3,14.3,6.5,21.4c0.3,0,0.6,0,0.9,0c-0.2,0.2-0.5,0.4-0.7,0.7
	c3.8,12.3,7.8,24.6,11.9,36.8h14l1.7,4.5c5.1,1.2,10.1,2.5,15.2,3.8c0.8-10.4,1.3-20.8,1.3-31.3c0-4.6,0-9.1,0-13.7
	C1447.6,159.8,1435.1,154.8,1422.9,149.1z"/>
<path d="M1460.2,148.3c-3,0.6-6.4,0.9-9.9,0.9h-27.4c12.2,5.7,24.7,10.7,37.2,15.5C1460.1,159.2,1460.2,153.7,1460.2,148.3z"/>
<path d="M1458.8,209.6c-5.1-1.3-10.1-2.6-15.2-3.8l12.4,32.5C1457.1,228.8,1458,219.2,1458.8,209.6z"/>
<path d="M1452.8,102.4c2.8,0,5.3,0.2,7.7,0.5c0-17.4-0.2-34.8-1-52.4H1422c-7.1,17.1-15.7,33.3-25.1,49c1.5,5.3,3,10.6,4.5,15.9
	c5.6,0.5,11.2,1,16.9,1.4v-14.4H1452.8z"/>
<path d="M1518.7,186.5c-19.5-7.5-39.2-14.4-58.6-21.9c0,4.5,0,9.1,0,13.7c0,10.5-0.5,20.9-1.3,31.3c18.1,4.6,36.2,9.6,54.4,14.2
	c1.4-10.7,3-21.4,4.7-32.1l-1.4-3.5c0.7-0.3,1.4-0.7,2.2-1.1C1518.6,187,1518.7,186.8,1518.7,186.5z"/>
<path d="M1529.7,124.7c-1.6-1.8-3.1-3.5-4.7-5.3c-14.7,0.1-29.4,0.1-44.1,0c0.4,2,0.7,4.2,0.7,6.5c0,7.6-2.9,13.4-8.6,17.3
	c-3.5,2.4-7.8,4.1-12.8,5c0,5.4-0.1,10.9-0.1,16.4c19.4,7.5,39.1,14.4,58.6,21.9C1522.1,165.9,1525.9,145.3,1529.7,124.7z"/>
<path d="M1458.8,209.6c-0.7,9.6-1.7,19.2-2.7,28.7l17.2,45c10.5-5.2,21-10.2,31.8-15.1c1.2-0.6,2.4-1.2,3.6-1.9
	c1.1-14.2,2.7-28.3,4.6-42.5C1494.9,219.3,1476.8,214.3,1458.8,209.6z"/>
<path d="M1459.5,50.6c0.7,17.6,0.9,35,1,52.4c11.6,1.6,18.4,7.1,20.4,16.4c14.7,0.2,29.4,0.2,44.1,0c-19.9-22.4-40-44.7-58.2-68.8
	L1459.5,50.6L1459.5,50.6z"/>
<path d="M1505,268.2c-10.8,4.9-21.4,9.9-31.8,15.1l4.3,11.4h29.4c0.3-9.5,0.9-18.9,1.7-28.4C1507.4,267,1506.2,267.6,1505,268.2z"/>
<path d="M1513.2,223.9c6.7,1.7,13.3,3.3,20.1,4.8l-15.4-37C1516.2,202.4,1514.6,213.1,1513.2,223.9z"/>
<path d="M1513.2,223.9c-1.9,14.1-3.4,28.3-4.6,42.5c10.6-6,20.7-14.3,31.6-20.7l-7-16.9C1526.5,227.2,1519.8,225.5,1513.2,223.9z"/>
<path d="M1560.6,294.7l-20.4-49.1c-10.9,6.4-21,14.8-31.6,20.7c-0.8,9.4-1.3,18.9-1.7,28.4L1560.6,294.7L1560.6,294.7z"/>
<path d="M1779.7,50.6h-15.6c-3.7,3.6-7.4,7.1-11.2,10.6c9.1,14.4,18.1,28.8,26.7,43.4L1779.7,50.6L1779.7,50.6z"/>
<path d="M1746.3,50.6c2.3,3.5,4.5,7.1,6.7,10.6c3.7-3.5,7.5-7,11.2-10.6H1746.3z"/>
<path d="M1634.3,88.8c-5.2-12.7-10.3-25.4-15.3-38.3h-23v38.2c10.5,3.5,21,6.9,31.6,10.3C1629.9,95.7,1632.1,92.3,1634.3,88.8z"/>
<path d="M1634.3,88.8c-2.2,3.5-4.5,6.9-6.7,10.3c4.2,1.4,8.4,2.7,12.6,4.1C1638.2,98.4,1636.3,93.6,1634.3,88.8z"/>
<path d="M1701.2,106.9h29.7c-0.5-8-1.1-16-1.8-24C1719.9,91.1,1710.6,99,1701.2,106.9z"/>
<path d="M1656.3,50.6h-37.2c5,12.8,10.1,25.6,15.3,38.3C1642.3,76.4,1649.7,63.8,1656.3,50.6z"/>
<path d="M1698.1,50.6c-7.8,18.7-15.6,37.5-23.1,56.3h26.1c9.4-7.9,18.7-15.8,27.9-24c-0.9-10.8-1.9-21.6-3.1-32.4h-27.8V50.6z"/>
<path d="M1656.3,50.6c-6.5,13.2-14,25.9-21.9,38.3c1.9,4.8,3.9,9.6,5.8,14.4c9.8,3.1,19.6,6.3,29.4,9.4v-5.6h5.5
	c7.5-18.8,15.2-37.6,23.1-56.3h-41.9V50.6z"/>
<path d="M1669.5,112.5c-9.8-3.1-19.6-6.2-29.4-9.4c5.4,13.1,10.9,26.1,16.6,39.1c2.1-1.6,4.2-3.3,6.3-4.9c2.1-5.5,4.2-11.1,6.4-16.6
	L1669.5,112.5L1669.5,112.5z"/>
<path d="M1669.5,120.8c-2.2,5.5-4.3,11-6.4,16.6c2.1-1.6,4.3-3.3,6.4-4.9V120.8z"/>
<path d="M1656.8,142.3c0.8,1.8,1.6,3.6,2.4,5.5c1.3-3.5,2.6-6.9,3.9-10.3C1661,139,1658.9,140.7,1656.8,142.3z"/>
<path d="M1669.5,142.3v-9.9c-2.1,1.7-4.3,3.3-6.4,4.9c-1.3,3.4-2.6,6.9-3.9,10.3c6.2,14.1,12.6,28.2,19.3,42.1
	c18.4-8.1,36.7-16.4,54.9-24.8c-0.2-7.6-0.4-15.1-0.7-22.7h-63.2V142.3z"/>
<path d="M1678.5,189.9c1.1,2.2,2.1,4.4,3.2,6.6h52.3c-0.1-10.5-0.3-21-0.6-31.5C1715.1,173.5,1696.8,181.8,1678.5,189.9z"/>
<path d="M1602.2,222.5c9.2,3.6,18.4,7.2,27.6,10.7c2.7-8.6,5.4-17.3,8.2-25.8C1626.1,212.5,1614.2,217.5,1602.2,222.5z"/>
<path d="M1669.5,196.5h12.1c-1.1-2.2-2.1-4.4-3.2-6.6c-3.4,1.5-6.9,3-10.3,4.5C1668.6,195.1,1669.1,195.9,1669.5,196.5L1669.5,196.5
	z"/>
<path d="M1668.1,194.4c-10,4.4-20,8.7-30.1,13c-2.8,8.6-5.6,17.2-8.2,25.8c12.9,4.9,25.9,9.7,39,14.2c0.4,0.2,0.9,0.3,1.3,0.5
	c0.8-3.8,1.5-7.6,2.2-11.4h-2.8v-39.8C1669.1,195.9,1668.6,195.1,1668.1,194.4z"/>
<path d="M1701.7,236.4h-29.3c-0.7,3.8-1.4,7.6-2.2,11.4c14.9,5.1,29.8,9.4,44.8,13.2C1710.4,252.8,1706,244.6,1701.7,236.4z"/>
<path d="M1656.8,142.3c-19.9,15.2-40.1,29.8-60.8,43.9v33.9c2.1,0.8,4.1,1.6,6.2,2.4c12-5,23.9-10.1,35.8-15.2
	c6.6-20,13.7-39.9,21.1-59.6C1658.4,145.9,1657.6,144.1,1656.8,142.3z"/>
<path d="M1659.2,147.8c-7.4,19.7-14.5,39.6-21.1,59.6c13.5-5.8,27-11.6,40.4-17.5C1671.8,175.9,1665.4,161.9,1659.2,147.8z"/>
<path d="M1596,88.8v56.4c10.4-15.4,21.3-30.6,31.6-46.1C1617.1,95.7,1606.5,92.3,1596,88.8z"/>
<path d="M1640.2,103.2c-4.2-1.3-8.4-2.7-12.6-4.1c-10.3,15.5-21.1,30.6-31.6,46.1v41c20.6-14.1,40.9-28.8,60.8-43.9
	C1651.1,129.3,1645.6,116.3,1640.2,103.2z"/>
<path d="M1715,261c6.3,1.6,12.6,3.1,19,4.5c0.1-9.7,0.1-19.4,0.2-29.1h-32.4C1706,244.6,1710.4,252.8,1715,261z"/>
<path d="M1596,220.1v5c2.1-0.9,4.1-1.7,6.2-2.6C1600.2,221.7,1598.1,220.9,1596,220.1z"/>
<path d="M1602.2,222.5c-2.1,0.9-4.1,1.7-6.2,2.6v69.6h16.9c5-20.7,10.7-41.2,16.9-61.5C1620.6,229.7,1611.4,226.1,1602.2,222.5z"/>
<path d="M1668.9,247.4c-13.1-4.5-26.1-9.3-39-14.2c-6.2,20.3-11.9,40.7-16.9,61.5h46c3.6-15.6,7.9-31,11.2-46.9
	C1669.7,247.7,1669.3,247.5,1668.9,247.4z"/>
<path d="M1733.7,293.3c-6.4-10.7-12.7-21.5-18.7-32.3c-15-3.8-29.9-8.1-44.8-13.2c-3.3,15.8-7.6,31.3-11.2,46.9h74.7
	C1733.7,294.2,1733.7,293.8,1733.7,293.3z"/>
<path d="M1733.7,293.3c0.1-9.3,0.2-18.6,0.3-27.8c-6.3-1.4-12.7-2.9-19-4.5C1721,271.9,1727.2,282.6,1733.7,293.3z"/>
<path d="M1734.1,236.4c0,9.7-0.1,19.4-0.2,29.1c15.2,3.4,30.5,6.4,45.8,9.3v-38.5h-45.6V236.4z"/>
<path d="M1733.7,294.7h0.8c-0.3-0.4-0.5-0.9-0.8-1.3C1733.7,293.8,1733.7,294.2,1733.7,294.7z"/>
<path d="M1734,265.5c-0.1,9.3-0.2,18.6-0.3,27.8c0.3,0.4,0.5,0.9,0.8,1.3h45.2v-19.8C1764.4,271.9,1749.2,268.9,1734,265.5z"/>
<path d="M1732.7,142.3c0.3,7.6,0.5,15.1,0.7,22.7c8.4-3.9,16.8-7.9,25.2-11.9v-10.8L1732.7,142.3L1732.7,142.3z"/>
<path d="M1733.4,165c0.3,10.5,0.5,21,0.6,31.5h24.6v-43.4C1750.2,157.1,1741.8,161.1,1733.4,165z"/>
<path d="M1746.3,50.6H1726c1.2,10.8,2.2,21.6,3.1,32.4c8.1-7.1,16-14.4,23.9-21.7C1750.7,57.6,1748.5,54.1,1746.3,50.6z"/>
<path d="M1753,61.2c-7.9,7.4-15.8,14.6-23.9,21.7c0.7,8,1.3,16,1.8,24h48.9v-2.4C1771,90,1762.1,75.6,1753,61.2z"/>
</svg>
