<?xml version="1.0" encoding="utf-8"?>
<!-- Generator: Adobe Illustrator 22.0.1, SVG Export Plug-In . SVG Version: 6.00 Build 0)  -->
<svg version="1.1" id="Layer_1" xmlns="http://www.w3.org/2000/svg" xmlns:xlink="http://www.w3.org/1999/xlink" x="0px" y="0px"
	 viewBox="0 0 200 200" style="enable-background:new 0 0 200 200;" xml:space="preserve">
<style type="text/css">
	.st0{fill:#FFFFFF;}
</style>
<animateTransform  accumulate="none" additive="replace" attributeName="transform" attributeType="XML" calcMode="linear" dur="10s" fill="remove" from="0 0 0" repeatCount="indefinite" restart="always" to="360 0 0" type="rotate">
	</animateTransform>
<g>
	<path d="M-74.4,44.3l1.3,0.2c-0.1,0.8-0.4,1.5-1,2c-0.5,0.5-1.3,0.7-2.1,0.7c-0.7,0-1.3-0.2-1.8-0.6c-0.4-0.4-0.8-0.9-1-1.5
		s-0.3-1.3-0.3-2.1c0-1.2,0.3-2.2,0.9-3s1.4-1.1,2.4-1.1c0.8,0,1.4,0.3,2,0.8s0.8,1.2,0.9,2.1l-1.3,0.1c-0.2-1.2-0.7-1.8-1.6-1.8
		c-0.5,0-1,0.2-1.3,0.7s-0.4,1.2-0.4,2.2s0.1,1.7,0.4,2.2S-76.6,46-76,46c0.4,0,0.8-0.1,1.1-0.5S-74.5,44.7-74.4,44.3z"/>
	<path d="M-63.3,48.9l-4.8-1.1l1.7-7.8l1.5,0.3l-1.5,6.5l3.3,0.7L-63.3,48.9z"/>
	<path d="M-57.2,51.1l-1.3-0.5l3-7.4l1.3,0.5L-57.2,51.1z"/>
	<path d="M-46.7,53.5l1.1,0.8c-0.5,0.6-1.1,1-1.8,1.2s-1.5,0-2.2-0.4c-0.6-0.4-1-0.9-1.2-1.4c-0.2-0.6-0.2-1.2-0.1-1.8
		c0.1-0.7,0.4-1.3,0.8-2c0.6-1,1.4-1.7,2.3-2.1s1.8-0.3,2.6,0.3c0.7,0.4,1.1,1,1.3,1.7s0.1,1.5-0.3,2.3l-1.2-0.6
		c0.4-1.2,0.3-2-0.4-2.4c-0.5-0.3-0.9-0.3-1.5,0c-0.5,0.3-1,0.8-1.5,1.6s-0.8,1.5-0.7,2.1s0.2,1,0.7,1.3c0.4,0.2,0.8,0.3,1.2,0.1
		C-47.3,54.1-47,53.9-46.7,53.5z"/>
	<path d="M-38.5,64l-1.2-1.1l1.6-4.1l-2.5,0.4l-1.4,1.5l-1-1l5.5-5.8l1,1l-2.9,3c0.3-0.1,0.6-0.1,0.7-0.2l4.4-0.8l1.1,1l-3.2,0.6
		L-38.5,64z"/>
	<path d="M-28.8,79.1l-0.6-1.3l3.1-1.5l-1.4-2.7l-3.1,1.5l-0.6-1.3l7.2-3.6l0.6,1.3l-3,1.5l1.4,2.7l2.9-1.5l0.6,1.3L-28.8,79.1z"/>
	<path d="M-25.6,89.4l-1.3-5l7.7-2l1.3,5l-1.2,0.3l-0.9-3.6l-2.1,0.5l0.7,2.9l-1.1,0.3l-0.7-2.9l-2.2,0.6l0.9,3.6L-25.6,89.4z"/>
	<path d="M-24.5,100.8l-0.1-1.5l3.2-1.4l-0.1-2l-3.3,0.2l-0.1-1.4l8-0.4l0.2,3.5c0,1-0.1,1.7-0.6,2.2c-0.4,0.5-1,0.7-1.7,0.8
		c-1,0-1.8-0.4-2.2-1.3L-24.5,100.8z M-20.3,95.8l0.1,1.8c0,0.5,0.2,0.9,0.4,1.1s0.5,0.4,0.9,0.3c0.4,0,0.6-0.2,0.8-0.4
		s0.3-0.6,0.3-1.1l-0.1-1.9L-20.3,95.8z"/>
	<path d="M-25.7,111.3l0.8-5.1l7.9,1.3l-0.8,5.1l-1.2-0.2l0.6-3.7l-2.1-0.3l-0.5,2.9l-1.1-0.2l0.5-2.9l-2.2-0.4l-0.6,3.7
		L-25.7,111.3z"/>
	<path d="M-31,125.3l0.7-1.4l6,3.1l1-1.9l1.1,0.6l-2.7,5.1l-1.1-0.6l1-1.9L-31,125.3z"/>
	<path d="M-36.5,133.3c0.7-0.8,1.5-1.2,2.5-1.2s1.9,0.4,2.9,1.2c0.9,0.7,1.5,1.6,1.7,2.6s0,1.9-0.7,2.7s-1.5,1.2-2.5,1.2
		s-1.9-0.4-2.9-1.1c-1-0.8-1.5-1.6-1.7-2.6S-37.2,134.1-36.5,133.3z M-35.6,134c-0.3,0.4-0.4,0.9-0.3,1.4c0.1,0.5,0.6,1.2,1.5,1.9
		c0.7,0.6,1.4,0.9,2,1s1.1-0.1,1.5-0.6c0.8-1,0.4-2.1-1.1-3.3c-0.7-0.6-1.4-0.9-2-1C-34.8,133.4-35.2,133.6-35.6,134z"/>
	<path d="M-51,150.6l-2.1-3.5l0.5-0.3l0.9,0.7c0-0.9,0.4-1.6,1.2-2.1c0.9-0.6,1.8-0.6,2.7-0.2c0.9,0.4,1.6,1.1,2.2,2.1
		c0.6,1,0.8,2,0.7,3s-0.6,1.8-1.5,2.3c-0.7,0.4-1.4,0.6-2.1,0.4c-0.7-0.1-1.3-0.5-1.7-1l1-0.8c0.7,0.7,1.4,0.8,2.2,0.4
		c0.5-0.3,0.8-0.7,0.8-1.3c0.1-0.6-0.1-1.3-0.6-2.1c-1-1.7-2.1-2.3-3.2-1.6c-0.4,0.3-0.7,0.6-0.8,1.1s0,0.9,0.3,1.4l1.4-0.8l0.6,1
		L-51,150.6z"/>
	<path d="M-61,150.2c1-0.3,1.9-0.2,2.7,0.4c0.8,0.6,1.4,1.4,1.8,2.5s0.4,2.1,0,3.1c-0.4,0.9-1,1.6-2,1.9c-1,0.3-1.9,0.2-2.7-0.3
		c-0.8-0.6-1.4-1.4-1.8-2.5c-0.4-1.2-0.4-2.2,0-3.1C-62.6,151.2-62,150.5-61,150.2z M-60.6,151.3c-0.5,0.2-0.8,0.5-1.1,1
		c-0.2,0.5-0.1,1.3,0.2,2.4c0.3,0.9,0.7,1.5,1.1,1.9s1,0.5,1.6,0.3c1.2-0.4,1.4-1.5,0.8-3.4c-0.3-0.9-0.7-1.6-1.1-1.9
		C-59.6,151.2-60.1,151.1-60.6,151.3z"/>
	<path d="M-79.2,153h1.5l-0.1,6.8h2.1v1.2l-5.8-0.1v-1.2h2.1L-79.2,153z"/>
	<path d="M-88.8,151.7c1,0.2,1.8,0.8,2.2,1.7c0.4,0.9,0.5,1.9,0.2,3.1c-0.2,1.1-0.8,2-1.5,2.7c-0.8,0.6-1.7,0.8-2.7,0.6
		s-1.7-0.8-2.2-1.7c-0.4-0.9-0.5-1.9-0.3-3.1c0.3-1.2,0.8-2.1,1.6-2.7C-90.7,151.7-89.8,151.5-88.8,151.7z M-89.1,152.8
		c-0.5-0.1-1,0-1.4,0.4c-0.4,0.3-0.8,1.1-1,2.2c-0.2,0.9-0.2,1.6,0,2.2c0.2,0.6,0.6,0.9,1.2,1.1c1.2,0.3,2-0.6,2.4-2.5
		c0.2-0.9,0.2-1.7,0-2.2C-88.1,153.3-88.5,152.9-89.1,152.8z"/>
	<path d="M-105.9,144.8l1.3,0.8l-3.5,5.8l1.8,1.1l-0.6,1.1l-4.9-3l0.6-1.1l1.8,1.1L-105.9,144.8z"/>
	<path d="M-115.9,136.8l1.1,1l-2.4,2.5l2.2,2.1l2.4-2.5l1.1,1l-5.4,5.9l-1.1-1l2.2-2.4l-2.2-2.1l-2.2,2.4l-1.1-1L-115.9,136.8z"/>
	<path d="M-122.6,128.2l3,4.2l-6.5,4.6l-3-4.2l1-0.7l2.1,3l1.8-1.3l-1.7-2.4l0.9-0.7l1.7,2.4l1.8-1.3l-2.2-3.1L-122.6,128.2z"/>
	<path d="M-128.2,115.8l0.4,1.4l-7.7,2.2l-0.9-3.2c-0.3-0.9-0.2-1.6,0.1-2.2s0.8-0.9,1.4-1.1c0.7-0.2,1.3-0.1,1.9,0.2
		c0.6,0.3,1,0.9,1.2,1.6l0.5,1.9L-128.2,115.8z M-132.5,117l-0.5-1.6c-0.1-0.4-0.3-0.7-0.6-0.9c-0.3-0.2-0.6-0.2-0.9-0.1
		s-0.6,0.3-0.7,0.5c-0.2,0.3-0.2,0.7,0,1.2l0.4,1.5L-132.5,117z"/>
	<path d="M-130.4,103.4c0.1,1.1-0.3,1.9-1,2.6c-0.8,0.6-1.7,1-2.9,1.1s-2.2-0.2-3-0.8c-0.8-0.6-1.3-1.4-1.3-2.4
		c-0.1-1,0.3-1.9,1-2.5c0.7-0.7,1.7-1,2.9-1.1s2.2,0.2,3,0.7C-130.9,101.6-130.4,102.4-130.4,103.4z M-131.5,103.5
		c0-0.5-0.3-0.9-0.7-1.3c-0.5-0.3-1.2-0.5-2.4-0.4c-0.9,0.1-1.6,0.3-2.1,0.6c-0.5,0.3-0.7,0.8-0.7,1.4c0.1,1.2,1.1,1.8,3.1,1.7
		c1-0.1,1.7-0.3,2.2-0.6C-131.7,104.5-131.5,104.1-131.5,103.5z"/>
	<path d="M-129.5,88.6l-0.2,1.5l-3.4,0.7l-0.3,2l3.2,0.5l-0.2,1.4l-7.9-1.2l0.5-3.4c0.1-1,0.5-1.6,1-2s1.1-0.5,1.8-0.4
		c1,0.2,1.6,0.7,1.9,1.7L-129.5,88.6z M-134.6,92.7l0.3-1.8c0.1-0.5,0-0.9-0.1-1.2c-0.2-0.3-0.5-0.5-0.8-0.5c-0.3-0.1-0.6,0-0.9,0.2
		c-0.3,0.2-0.4,0.5-0.5,1l-0.3,1.9L-134.6,92.7z"/>
	<path d="M-127,80.8l-0.6,1.5l-6.3-2.4l-0.7,2l-1.2-0.4l2-5.4l1.2,0.4l-0.7,2L-127,80.8z"/>
	<path d="M-123.4,73.2l-0.8,1.3l-6.8-4.1l2.6-4.3l1.1,0.6l-1.8,3.1l1.9,1.1l1.5-2.4l1,0.6l-1.5,2.4L-123.4,73.2z"/>
	<path d="M-116.6,64.3c-0.7,0.8-1.6,1.1-2.6,1s-1.9-0.6-2.8-1.3c-0.9-0.8-1.4-1.7-1.5-2.7c-0.2-1,0.1-1.9,0.8-2.6
		c0.7-0.8,1.5-1.1,2.5-1s1.9,0.5,2.8,1.3c0.9,0.8,1.4,1.7,1.6,2.7C-115.6,62.6-115.9,63.5-116.6,64.3z M-117.4,63.5
		c0.4-0.4,0.5-0.9,0.4-1.4c-0.1-0.5-0.5-1.2-1.4-2c-0.7-0.6-1.3-1-1.9-1.1c-0.6-0.1-1.1,0-1.5,0.5c-0.8,0.9-0.5,2,0.9,3.4
		c0.7,0.7,1.4,1,1.9,1.1C-118.3,64.1-117.8,63.9-117.4,63.5z"/>
	<path d="M-106.4,55.4l-4,2.9l-4.7-6.5l1.2-0.9l3.9,5.4l2.8-2L-106.4,55.4z"/>
	<path d="M-100.6,52.3l-1.3,0.6l-3.6-7.2l1.3-0.6L-100.6,52.3z"/>
	<path d="M-92.5,49.3c-1,0.3-1.9,0.1-2.7-0.4c-0.8-0.6-1.4-1.5-1.7-2.6c-0.3-1.1-0.3-2.1,0.1-3.1c0.4-0.9,1.1-1.5,2.1-1.8
		s1.9-0.1,2.7,0.4c0.8,0.6,1.4,1.4,1.7,2.6c0.3,1.2,0.3,2.2-0.1,3.1C-90.8,48.4-91.5,49-92.5,49.3z M-92.8,48.1
		c0.5-0.1,0.9-0.5,1.1-1s0.2-1.3-0.1-2.4c-0.3-0.9-0.6-1.5-1-1.9s-0.9-0.5-1.5-0.4c-1.2,0.3-1.5,1.5-0.9,3.4c0.3,0.9,0.6,1.6,1.1,2
		C-93.9,48.2-93.4,48.3-92.8,48.1z"/>
</g>
<g>
	<path class="st0" d="M100,45.1l1.4-0.2c0.1,0.8,0.7,1.3,1.9,1.3c0.5,0,0.9,0,1.2-0.2c0.3-0.2,0.4-0.4,0.5-0.7c0-0.2,0-0.4-0.2-0.6
		c-0.1-0.2-0.4-0.4-0.8-0.5l-1.5-0.5c-0.5-0.2-0.9-0.4-1.1-0.5c-0.2-0.2-0.4-0.5-0.6-0.8c-0.1-0.3-0.2-0.7-0.2-1
		c0-0.7,0.4-1.3,0.9-1.7c0.6-0.4,1.3-0.6,2.1-0.5c0.7,0,1.3,0.2,1.8,0.6c0.5,0.3,0.9,0.8,1,1.4l-1.4,0.3c-0.2-0.6-0.7-1-1.4-1
		c-0.5,0-0.8,0-1.1,0.2c-0.3,0.2-0.4,0.4-0.4,0.7c0,0.5,0.3,0.8,1.1,1l1.4,0.4c0.8,0.3,1.4,0.6,1.6,1c0.3,0.4,0.4,0.9,0.3,1.4
		c0,0.8-0.4,1.4-1,1.8c-0.6,0.4-1.4,0.6-2.4,0.5c-0.8-0.1-1.5-0.3-2.1-0.6C100.5,46.4,100.2,45.8,100,45.1z"/>
	<path class="st0" d="M115.9,46.6l1.3,0.5c-0.3,0.8-0.8,1.3-1.4,1.7c-0.7,0.4-1.4,0.4-2.3,0.2c-0.7-0.2-1.3-0.5-1.6-1
		c-0.4-0.5-0.6-1.1-0.7-1.7c-0.1-0.7,0-1.4,0.2-2.1c0.3-1.2,0.9-2.1,1.6-2.7c0.8-0.6,1.6-0.8,2.6-0.5c0.8,0.2,1.4,0.6,1.8,1.2
		c0.4,0.6,0.5,1.4,0.4,2.3l-1.4-0.2c0.1-1.3-0.3-2-1.1-2.2c-0.5-0.1-1,0-1.4,0.4c-0.4,0.4-0.8,1.1-1,2c-0.2,1-0.3,1.7-0.1,2.3
		c0.2,0.6,0.5,0.9,1.1,1.1c0.4,0.1,0.8,0,1.2-0.2C115.5,47.4,115.7,47,115.9,46.6z"/>
	<path class="st0" d="M126.2,54l-1.4-0.7l0.3-3.6l-1.8-0.9l-1.5,3l-1.3-0.6l3.6-7.3l3.2,1.6c0.9,0.4,1.4,0.9,1.6,1.5
		c0.2,0.6,0.2,1.2-0.1,1.8c-0.5,0.9-1.2,1.4-2.3,1.3L126.2,54z M123.8,47.8l1.6,0.8c0.5,0.2,0.9,0.3,1.2,0.2
		c0.3-0.1,0.6-0.3,0.8-0.7c0.2-0.3,0.2-0.6,0-0.9c-0.1-0.3-0.4-0.6-0.8-0.8l-1.7-0.9L123.8,47.8z"/>
	<path class="st0" d="M132.3,58.4c-0.9-0.7-1.3-1.5-1.2-2.5c0-1,0.4-2,1.1-2.9c0.7-0.9,1.6-1.5,2.6-1.8c1-0.2,1.9,0,2.7,0.6
		c0.8,0.6,1.2,1.5,1.2,2.5c0,1-0.4,2-1.1,2.9c-0.8,1-1.6,1.6-2.6,1.8S133.2,59,132.3,58.4z M133.1,57.4c0.4,0.3,0.9,0.4,1.5,0.3
		c0.6-0.1,1.2-0.6,1.9-1.5c0.6-0.7,0.9-1.4,1-2c0.1-0.6-0.1-1.1-0.6-1.5c-1-0.8-2.1-0.4-3.3,1.2c-0.6,0.8-0.9,1.5-1,2.1
		C132.4,56.6,132.6,57.1,133.1,57.4z"/>
	<path class="st0" d="M141.7,67.4l-3.3-3.8l6.1-5.4l1,1.2l-5.1,4.5l2.3,2.6L141.7,67.4z"/>
	<path class="st0" d="M146.7,75.2l-2.6-4.3l7-4.2l0.8,1.3l-5.8,3.5l1.8,3L146.7,75.2z"/>
	<path class="st0" d="M150.7,84.9l7.9-1.8l0.7,2.9c0.3,1.1,0.1,2-0.5,2.9c-0.6,0.8-1.5,1.4-2.6,1.6c-1.1,0.3-2.1,0.1-3-0.4
		c-0.9-0.5-1.5-1.4-1.8-2.6L150.7,84.9z M152.2,86.1l0.3,1.2c0.1,0.6,0.5,1.1,1.1,1.5c0.6,0.3,1.3,0.4,2.3,0.2
		c0.8-0.2,1.4-0.5,1.8-1c0.4-0.5,0.6-1.1,0.4-1.7l-0.3-1.4L152.2,86.1z"/>
	<path class="st0" d="M152.7,98.8c0-1.1,0.4-1.9,1.2-2.5c0.8-0.6,1.8-0.9,3-1c1.2,0,2.2,0.3,3,0.9c0.8,0.6,1.2,1.5,1.2,2.5
		c0,1.1-0.4,1.9-1.1,2.5c-0.8,0.6-1.8,1-3,1c-1.3,0-2.3-0.3-3.1-0.9C153.1,100.7,152.7,99.9,152.7,98.8z M153.9,98.8
		c0,0.5,0.2,1,0.7,1.3c0.4,0.4,1.2,0.5,2.4,0.5c0.9,0,1.7-0.2,2.2-0.5c0.5-0.3,0.8-0.8,0.8-1.4c0-1.3-1-1.9-3.1-1.8
		c-1,0-1.7,0.2-2.2,0.5S153.8,98.2,153.9,98.8z"/>
	<path class="st0" d="M158.5,117.8L151,114l0.3-1.5l6.2-0.3l-5.5-2.7l0.3-1.5l8.4-0.5l-0.3,1.5l-6.1,0.3l5.5,2.7l-0.3,1.5l-6.1,0.4
		l5.5,2.7L158.5,117.8z"/>
	<path class="st0" d="M146.3,125.5l0.6-1.3l6-0.5c0.1,0,0.2,0,0.4,0c0.1,0,0.2,0,0.4,0l-5.4-2.6l0.5-1.1l7.3,3.5l-0.7,1.5l-5.6,0.5
		c0,0-0.4,0-1,0.1l5.1,2.4l-0.5,1L146.3,125.5z"/>
	<path class="st0" d="M137.9,136.8l1.1-1.1l5,4.7l1.5-1.6l0.9,0.9l-4,4.3l-0.9-0.9l1.5-1.6L137.9,136.8z"/>
	<path class="st0" d="M131,142.6c0.9-0.6,1.8-0.8,2.8-0.5s1.8,0.9,2.5,1.9c0.7,1,1,1.9,1,3c0,1-0.5,1.8-1.3,2.5
		c-0.9,0.6-1.8,0.8-2.7,0.5c-1-0.3-1.8-0.9-2.5-1.9c-0.7-1-1.1-2-1-3C129.7,144,130.2,143.2,131,142.6z M131.7,143.5
		c-0.4,0.3-0.7,0.8-0.7,1.3c0,0.6,0.3,1.3,1,2.2c0.6,0.8,1.1,1.3,1.7,1.5c0.6,0.3,1.1,0.2,1.6-0.2c1-0.7,0.9-1.9-0.3-3.6
		c-0.6-0.8-1.1-1.3-1.7-1.5C132.7,143.1,132.2,143.2,131.7,143.5z"/>
	<path class="st0" d="M113.9,155.3l-1.2-4l0.6-0.2l0.8,0.9c0.2-0.9,0.8-1.5,1.7-1.8c1.1-0.3,2-0.2,2.7,0.5c0.8,0.6,1.3,1.5,1.6,2.6
		c0.3,1.1,0.3,2.2,0,3.1c-0.3,1-1,1.6-2.1,1.9c-0.8,0.2-1.5,0.2-2.1-0.1c-0.6-0.3-1.1-0.8-1.5-1.4l1.2-0.6c0.5,0.9,1.2,1.2,2.1,0.9
		c0.6-0.2,0.9-0.5,1.1-1.1c0.2-0.6,0.2-1.3-0.1-2.2c-0.6-2-1.5-2.8-2.8-2.4c-0.5,0.1-0.8,0.4-1,0.9c-0.2,0.4-0.2,0.9-0.1,1.5
		l1.6-0.5l0.3,1.1L113.9,155.3z"/>
	<path class="st0" d="M105,152.4c1.1-0.1,2,0.2,2.6,1c0.7,0.8,1.1,1.7,1.2,2.9c0.1,1.2-0.1,2.2-0.7,3s-1.4,1.3-2.4,1.4
		c-1.1,0.1-1.9-0.2-2.6-1c-0.7-0.7-1.1-1.7-1.2-2.9c-0.1-1.2,0.1-2.3,0.7-3.1C103.1,153,103.9,152.5,105,152.4z M105,153.6
		c-0.5,0-1,0.3-1.3,0.8c-0.3,0.5-0.4,1.3-0.3,2.4c0.1,0.9,0.3,1.6,0.7,2.1c0.4,0.5,0.8,0.7,1.5,0.7c1.3-0.1,1.8-1.2,1.6-3.2
		c-0.1-1-0.3-1.7-0.7-2.2C106.1,153.8,105.6,153.6,105,153.6z"/>
	<path class="st0" d="M87.9,151.4l1.5,0.3l-1.5,6.7l2.1,0.5l-0.3,1.2l-5.8-1.3l0.3-1.2l2.1,0.5L87.9,151.4z"/>
	<path class="st0" d="M79.4,148.5c1,0.4,1.6,1.1,1.8,2.1c0.2,1,0.1,2-0.3,3.1c-0.5,1.1-1.1,1.9-2,2.4s-1.8,0.5-2.8,0.1
		c-1-0.4-1.6-1.1-1.8-2.1c-0.3-1-0.1-2,0.3-3.1c0.5-1.2,1.2-2,2.1-2.4C77.5,148.1,78.4,148.1,79.4,148.5z M78.9,149.6
		c-0.5-0.2-1-0.2-1.5,0.1c-0.5,0.3-1,0.9-1.4,2c-0.4,0.9-0.5,1.6-0.4,2.2c0.1,0.6,0.4,1,1,1.3c1.2,0.5,2.1-0.2,2.9-2.1
		c0.4-0.9,0.5-1.6,0.4-2.2C79.7,150.2,79.4,149.8,78.9,149.6z"/>
	<path class="st0" d="M64.8,139.4l1.2,1l-4.5,5.2l1.6,1.4l-0.8,1l-4.5-3.9l0.8-1l1.6,1.4L64.8,139.4z"/>
	<path class="st0" d="M56.7,130.4l0.9,1.1l-2.8,2.2l1.9,2.4l2.8-2.2l0.9,1.1l-6.4,5l-0.9-1.1l2.6-2.1l-1.9-2.4l-2.6,2.1l-0.9-1.1
		L56.7,130.4z"/>
	<path class="st0" d="M51.6,121.5l2.4,4.7l-7.2,3.7l-2.4-4.7l1.1-0.6l1.7,3.3l2-1l-1.4-2.7l1-0.5l1.4,2.7l2-1l-1.7-3.4L51.6,121.5z"
		/>
	<path class="st0" d="M48,109.8l0.2,1.4l-8,1.3l-0.5-3.3c-0.2-0.9,0-1.7,0.4-2.2c0.4-0.5,0.9-0.8,1.6-1c0.7-0.1,1.4,0,1.9,0.4
		c0.5,0.4,0.9,1,1,1.8l0.3,2L48,109.8z M43.6,110.5l-0.3-1.7c-0.1-0.4-0.2-0.8-0.5-1c-0.3-0.2-0.6-0.3-0.9-0.2
		c-0.3,0.1-0.6,0.2-0.8,0.5c-0.2,0.3-0.3,0.7-0.2,1.2l0.3,1.6L43.6,110.5z"/>
	<path class="st0" d="M47.3,97.9c0,1.1-0.5,1.9-1.3,2.5c-0.8,0.6-1.8,0.8-3,0.8c-1.2,0-2.2-0.4-2.9-1.1c-0.8-0.7-1.1-1.5-1.1-2.6
		c0-1.1,0.5-1.9,1.3-2.5c0.8-0.6,1.8-0.8,3-0.8c1.3,0,2.3,0.4,3,1.1C47,96,47.4,96.8,47.3,97.9z M46.1,97.8c0-0.5-0.2-1-0.6-1.4
		c-0.4-0.4-1.2-0.6-2.4-0.6c-0.9,0-1.7,0.1-2.2,0.4c-0.5,0.3-0.8,0.7-0.9,1.4c0,1.3,0.9,1.9,3,2c1,0,1.7-0.1,2.2-0.4
		C45.8,98.9,46.1,98.4,46.1,97.8z"/>
	<path class="st0" d="M49.6,83.8l-0.4,1.5l-3.5,0.4l-0.5,2l3.2,0.8L48,90l-7.9-2l0.9-3.4c0.2-1,0.6-1.6,1.2-1.9
		c0.5-0.3,1.2-0.4,1.8-0.3c1,0.3,1.6,0.9,1.7,1.9L49.6,83.8z M44,87.4l0.4-1.8c0.1-0.5,0.1-0.9,0-1.2c-0.2-0.3-0.4-0.5-0.8-0.6
		c-0.3-0.1-0.7,0-0.9,0.2c-0.3,0.2-0.5,0.5-0.6,1l-0.5,1.9L44,87.4z"/>
	<path class="st0" d="M52.4,76.9l-0.7,1.4l-6.2-2.9l-0.9,2l-1.1-0.5l2.5-5.3l1.1,0.5l-0.9,2L52.4,76.9z"/>
	<path class="st0" d="M56.3,70.2l-0.9,1.2l-6.7-4.7l3-4.2l1,0.7l-2.1,3l1.8,1.3l1.6-2.3l1,0.7l-1.6,2.3L56.3,70.2z"/>
	<path class="st0" d="M63.2,62.2c-0.8,0.8-1.7,1-2.7,0.9c-1-0.2-1.9-0.7-2.7-1.5c-0.8-0.8-1.3-1.8-1.4-2.8c-0.1-1,0.2-1.9,1-2.6
		c0.8-0.7,1.6-1,2.6-0.9s1.9,0.6,2.7,1.5c0.9,0.9,1.4,1.8,1.4,2.8C64.3,60.6,64,61.5,63.2,62.2z M62.4,61.3c0.4-0.4,0.5-0.8,0.5-1.4
		c0-0.6-0.5-1.3-1.3-2.1c-0.7-0.7-1.3-1.1-1.9-1.3c-0.6-0.2-1.1,0-1.6,0.4c-0.9,0.9-0.6,2,0.8,3.5c0.7,0.7,1.3,1.1,1.9,1.3
		S62,61.8,62.4,61.3z"/>
	<path class="st0" d="M73.5,54.2l-4.2,2.7l-4.5-6.8l1.3-0.8l3.7,5.7l2.9-1.9L73.5,54.2z"/>
	<path class="st0" d="M78.6,51.6l-1.3,0.6l-3.4-7.4l1.3-0.6L78.6,51.6z"/>
	<path class="st0" d="M86.2,49.1c-1,0.3-2,0.1-2.8-0.5c-0.8-0.6-1.3-1.5-1.7-2.7c-0.3-1.1-0.3-2.2,0.2-3.1s1.1-1.5,2.1-1.8
		c1-0.3,1.9-0.1,2.7,0.5c0.8,0.6,1.4,1.5,1.7,2.6c0.3,1.2,0.3,2.3-0.1,3.2C87.9,48.2,87.2,48.8,86.2,49.1z M85.9,48
		c0.5-0.1,0.9-0.5,1.1-1c0.2-0.5,0.2-1.3-0.1-2.4c-0.2-0.9-0.6-1.6-1-2c-0.4-0.4-1-0.6-1.6-0.4c-1.2,0.3-1.6,1.5-1,3.4
		c0.3,0.9,0.6,1.6,1,2C84.8,48,85.3,48.1,85.9,48z"/>
</g>
</svg>
